<?xml version="1.0" encoding="UTF-8"?>
<svg width="258px" height="172px" viewBox="0 0 258 172" version="1.1" xmlns="http://www.w3.org/2000/svg" xmlns:xlink="http://www.w3.org/1999/xlink">
    <!-- Generator: Sketch 58 (84663) - https://sketch.com -->
    <title>Group</title>
    <desc>Created with Sketch.</desc>
    <defs>
        <path d="M0.160264151,61.5964151 C0.160264151,95.5653962 27.6964528,123.102755 61.6666038,123.102755 L61.6666038,123.102755 C95.6355849,123.102755 123.172943,95.5653962 123.172943,61.5964151 L123.172943,61.5964151 C123.172943,27.6262642 95.6355849,0.0889056604 61.6666038,0.0889056604 L61.6666038,0.0889056604 C27.6964528,0.0889056604 0.160264151,27.6262642 0.160264151,61.5964151" id="path-1"></path>
        <path d="M61.6666038,123.102755 C95.6355849,123.102755 123.172943,95.5653962 123.172943,61.5964151 C123.172943,27.6262642 95.6355849,0.0889056604 61.6666038,0.0889056604 C27.6964528,0.0889056604 0.160264151,27.6262642 0.160264151,61.5964151 C0.160264151,95.5653962 27.6964528,123.102755 61.6666038,123.102755 Z" id="path-3"></path>
    </defs>
    <g id="Page-1" stroke="none" stroke-width="1" fill="none" fill-rule="evenodd">
        <g id="Group">
            <g id="Group-23" transform="translate(66.000000, 0.000000)">
                <path d="M61.4994152,0 C27.5342583,0 0,27.5351661 0,61.5 C0,95.4660035 27.5342583,123 61.4994152,123 C95.464572,123 123,95.4660035 123,61.5 C123,27.5351661 95.464572,0 61.4994152,0 Z" id="Fill-1" fill="#AF3C6D"></path>
                <g id="Group-9">
                    <g id="Group-5">
                        <mask id="mask-2" fill="white">
                            <use xlink:href="#path-1"></use>
                        </mask>
                        <g id="Clip-4"></g>
                        <path d="M114.53646,38.4466679 C114.53646,5.00644151 87.4272528,-22.102766 53.9870264,-22.102766 C20.5456302,-22.102766 -6.56357736,5.00644151 -6.56357736,38.4466679 C-6.56357736,71.8868943 20.5456302,98.9961019 53.9870264,98.9961019 C87.4272528,98.9961019 114.53646,71.8868943 114.53646,38.4466679" id="Fill-3" fill="#DA3265" mask="url(#mask-2)"></path>
                    </g>
                    <g id="Group-8">
                        <mask id="mask-4" fill="white">
                            <use xlink:href="#path-3"></use>
                        </mask>
                        <g id="Clip-7"></g>
                        <path d="M86.3564075,29.2235245 C86.3564075,3.35431698 65.3863698,-17.6168906 39.5171623,-17.6168906 C13.6479547,-17.6168906 -7.32208302,3.35431698 -7.32208302,29.2235245 C-7.32208302,55.0915623 13.6479547,76.0627698 39.5171623,76.0627698 C65.3863698,76.0627698 86.3564075,55.0915623 86.3564075,29.2235245" id="Fill-6" fill="#FE4C64" mask="url(#mask-4)"></path>
                    </g>
                </g>
                <g id="Group-22" transform="translate(22.000000, 22.000000)">
                    <path d="M73.8196657,26.6522507 L55.4885015,26.6522507 C53.4395463,26.6522507 51.7770985,24.989803 51.7770985,22.9408478 L51.7770985,4.61084776 C51.7770985,2.56072836 50.1158149,0.898280597 48.0656955,0.898280597 L30.4318746,0.898280597 C28.3817552,0.898280597 26.7204716,2.56072836 26.7204716,4.61084776 L26.7204716,22.9408478 C26.7204716,24.989803 25.0591881,26.6522507 23.0079045,26.6522507 L4.68023284,26.6522507 C2.63011343,26.6522507 0.967665672,28.3135343 0.967665672,30.3636537 L0.967665672,47.9963104 C0.967665672,50.047594 2.63011343,51.7088776 4.68023284,51.7088776 L23.0079045,51.7088776 C25.0591881,51.7088776 26.7204716,53.3713254 26.7204716,55.4202806 L26.7204716,73.7491164 C26.7204716,75.7992358 28.3817552,77.4616836 30.4318746,77.4616836 L48.0656955,77.4616836 C50.1158149,77.4616836 51.7770985,75.7992358 51.7770985,73.7491164 L51.7770985,55.4202806 C51.7770985,53.3713254 53.4395463,51.7088776 55.4885015,51.7088776 L73.8196657,51.7088776 C75.8697851,51.7088776 77.5310687,50.047594 77.5310687,47.9963104 L77.5310687,30.3636537 C77.5310687,28.3135343 75.8697851,26.6522507 73.8196657,26.6522507" id="Fill-10" fill="#0E3154"></path>
                    <path d="M38.7738,7.23746866 L35.1997701,13.4285731 C34.9878896,13.7952896 35.2521582,14.2528119 35.6759194,14.2528119 L42.8239791,14.2528119 C43.2477403,14.2528119 43.512009,13.7952896 43.3001284,13.4285731 L39.7260985,7.23746866 C39.5142179,6.87191642 38.9856806,6.87191642 38.7738,7.23746866" id="Fill-12" fill="#F9BA38"></path>
                    <path d="M39.7258657,71.121797 L43.2998955,64.9306925 C43.5117761,64.5639761 43.2475075,64.1064537 42.8249104,64.1064537 L35.6756866,64.1064537 C35.2519254,64.1064537 34.9876567,64.5639761 35.1995373,64.9306925 L38.7735672,71.121797 C38.9854478,71.4885134 39.5139851,71.4885134 39.7258657,71.121797" id="Fill-14" fill="#F9BA38"></path>
                    <path d="M7.30790149,39.6560149 L13.499006,43.2300448 C13.8657224,43.4419254 14.3232448,43.1776567 14.3232448,42.7538955 L14.3232448,35.6058358 C14.3232448,35.1820746 13.8657224,34.917806 13.499006,35.1296866 L7.30790149,38.7037164 C6.94118507,38.915597 6.94118507,39.4441343 7.30790149,39.6560149" id="Fill-16" fill="#F9BA38"></path>
                    <path d="M71.1922299,38.7038328 L65.0011254,35.129803 C64.634409,34.9179224 64.1768866,35.182191 64.1768866,35.6047881 L64.1768866,42.7540119 C64.1768866,43.1777731 64.634409,43.4420418 65.0011254,43.2301612 L71.1922299,39.6561313 C71.5577821,39.4442507 71.5577821,38.9157134 71.1922299,38.7038328" id="Fill-18" fill="#F9BA38"></path>
                    <path d="M47.1486716,39.1796328 C47.1486716,34.8174537 43.6118955,31.2806776 39.2497164,31.2806776 C34.8875373,31.2806776 31.3507612,34.8174537 31.3507612,39.1796328 C31.3507612,43.5429761 34.8875373,47.0785881 39.2497164,47.0785881 C43.6118955,47.0785881 47.1486716,43.5429761 47.1486716,39.1796328" id="Fill-20" fill="#DA3265"></path>
                </g>
            </g>
            <path d="M5.156,97.884 L25.644,97.884 L26.1460261,97.8878518 C26.6972692,97.8968394 27.1279244,97.9215554 27.438,97.962 C27.8366687,98.0140003 28.2873308,98.1786653 28.79,98.456 C29.2926692,98.7333347 29.647999,99.20133 29.856,99.86 C30.064001,100.51867 30.168,101.402661 30.168,102.512 C30.168,103.621339 30.064001,104.50533 29.856,105.164 C29.647999,105.82267 29.2840026,106.281999 28.764,106.542 C28.2439974,106.802001 27.7846687,106.958 27.386,107.01 C26.9873313,107.062 26.3720042,107.088 25.54,107.088 L9.628,107.088 L9.628,112.34 L19.872,112.34 C20.7040042,112.34 21.3193313,112.366 21.718,112.418 C22.1166687,112.47 22.5759974,112.634665 23.096,112.912 C23.9973378,113.432003 24.448,114.801322 24.448,117.02 C24.448,119.446679 23.7893399,120.885331 22.472,121.336 C21.9173306,121.509334 21.0333394,121.596 19.82,121.596 L9.628,121.596 L9.628,131.424 C9.628,132.256004 9.60200026,132.862665 9.55,133.244 C9.49799974,133.625335 9.33333472,134.075997 9.056,134.596 C8.57066424,135.532005 7.21867776,136 5,136 C2.5733212,136 1.15200208,135.34134 0.736,134.024 C0.52799896,133.469331 0.424,132.585339 0.424,131.372 L0.424,102.46 C0.424,100.691991 0.75333004,99.4873365 1.412,98.846 C2.07066996,98.2046635 3.31865748,97.884 5.156,97.884 Z M58.456,99.288 C58.8026684,98.7333306 59.30533,98.352001 59.964,98.144 C60.62267,97.935999 61.4459951,97.832 62.434,97.832 C63.4220049,97.832 64.2106637,97.9186658 64.8,98.092 C65.3893363,98.2653342 65.8399984,98.4733321 66.152,98.716 C66.4194299,98.924001 66.6231835,99.2211414 66.7632652,99.6074279 L66.828,99.808 C67.036001,100.397336 67.14,101.298661 67.14,102.512 L67.14,118.216 C67.14,122.792023 65.7186809,126.951981 62.876,130.696 C61.4893264,132.464009 59.7040109,133.893995 57.52,134.986 C55.3359891,136.078005 52.9180133,136.624 50.266,136.624 C47.6139867,136.624 45.2046775,136.069339 43.038,134.96 C40.8713225,133.850661 39.1120068,132.394676 37.76,130.592 C34.951986,126.917315 33.548,122.757357 33.548,118.112 L33.548,102.46 C33.548,101.627996 33.5739997,101.012669 33.626,100.614 C33.6780003,100.215331 33.8426653,99.7560026 34.12,99.236 C34.3973347,98.7159974 34.86533,98.352001 35.524,98.144 C36.18267,97.935999 37.0666611,97.832 38.176,97.832 C39.2853389,97.832 40.16933,97.935999 40.828,98.144 C41.48667,98.352001 41.9373321,98.7159974 42.18,99.236 C42.5960021,100.033337 42.804,101.125326 42.804,102.512 L42.804,118.112 C42.804,120.226677 43.3239948,122.237324 44.364,124.144 C44.8840026,125.114672 45.6639948,125.894664 46.704,126.484 C47.7440052,127.073336 48.9746596,127.368 50.396,127.368 C52.9266793,127.368 54.8159938,126.432009 56.064,124.56 C57.3120062,122.687991 57.936,120.521346 57.936,118.06 L57.936,102.148 C57.936,100.795993 58.1093316,99.8426694 58.456,99.288 Z M95.896,99.496 C96.2426684,98.8719969 96.74533,98.456001 97.404,98.248 C98.06267,98.039999 98.8859951,97.936 99.874,97.936 C100.862005,97.936 101.65933,98.0226658 102.266,98.196 C102.87267,98.3693342 103.323332,98.5773321 103.618,98.82 C103.870573,99.028001 104.065837,99.3251414 104.203796,99.7114279 L104.268,99.912 C104.476001,100.466669 104.58,101.350661 104.58,102.564 L104.58,131.424 C104.58,132.256004 104.554,132.862665 104.502,133.244 C104.45,133.625335 104.285335,134.075997 104.008,134.596 C103.522664,135.532005 102.170678,136 99.952,136 C98.5999932,136 97.6640026,135.896001 97.144,135.688 C96.6239974,135.479999 96.1906684,135.150669 95.844,134.7 L83.7302539,118.611035 C82.3510524,116.792463 81.2583029,115.360787 80.452,114.316 L80.452,131.424 C80.452,132.256004 80.4260003,132.862665 80.374,133.244 C80.3219997,133.625335 80.1573347,134.075997 79.88,134.596 C79.3946642,135.532005 78.0426778,136 75.824,136 C73.6746559,136 72.3573358,135.532005 71.872,134.596 C71.5946653,134.075997 71.4300003,133.608002 71.378,133.192 C71.3259997,132.775998 71.3,132.169337 71.3,131.372 L71.3,102.356 C71.3,101.03866 71.464665,100.07667 71.794,99.47 C72.123335,98.8633303 72.61733,98.456001 73.276,98.248 C73.93467,98.039999 74.7839948,97.936 75.824,97.936 C76.8640052,97.936 77.6873303,98.0313324 78.294,98.222 C78.824836,98.3888342 79.2163227,98.5755722 79.4684685,98.7822184 L79.643347,98.9377959 C79.8258773,99.1118361 80.1994257,99.540568 80.764,100.224 L88.5486906,110.772538 C91.684471,114.999422 93.9775642,118.052562 95.428,119.932 L95.428,102.356 C95.428,101.03866 95.5839984,100.085336 95.896,99.496 Z M150.028,105.58 C150.929338,107.417343 151.38,109.462655 151.38,111.716 C151.38,113.969345 150.929338,116.005991 150.028,117.826 C149.126662,119.646009 147.96534,121.093328 146.544,122.168 C143.666652,124.386678 140.685349,125.496 137.6,125.496 L131.1,125.496 L131.1,131.372 C131.1,132.169337 131.074,132.767331 131.022,133.166 C130.97,133.564669 130.805335,134.023997 130.528,134.544 C130.042664,135.480005 128.690678,135.948 126.472,135.948 C124.045321,135.948 122.624002,135.306673 122.208,134.024 C121.999999,133.434664 121.896,132.533339 121.896,131.32 L121.896,102.46 C121.896,101.662663 121.922,101.064669 121.974,100.666 C122.026,100.267331 122.190665,99.8080026 122.468,99.288 C122.953336,98.3519953 124.305322,97.884 126.524,97.884 L137.652,97.884 C140.702682,97.884 143.666652,98.9933222 146.544,101.212 C147.96534,102.286672 149.126662,103.742657 150.028,105.58 Z M137.652,116.292 C138.692005,116.292 139.714662,115.91067 140.72,115.148 C141.725338,114.38533 142.228,113.241341 142.228,111.716 C142.228,110.190659 141.725338,109.038004 140.72,108.258 C139.714662,107.477996 138.674672,107.088 137.6,107.088 L131.1,107.088 L131.1,116.292 L137.652,116.292 Z M163.964,128.304 L178.108,128.304 C179.252006,128.304 180.083997,128.433999 180.604,128.694 C181.124003,128.954001 181.470666,129.361331 181.644,129.916 C181.817334,130.470669 181.904,131.207329 181.904,132.126 C181.904,133.044671 181.817334,133.781331 181.644,134.336 C181.470666,134.890669 181.176002,135.271999 180.76,135.48 C180.10133,135.826668 179.200006,136 178.056,136 L159.336,136 C157.006388,136 155.603316,135.392979 155.126746,134.178919 L155.072,134.024 C154.863999,133.469331 154.76,132.585339 154.76,131.372 L154.76,102.46 C154.76,101.662663 154.786,101.064669 154.838,100.666 C154.89,100.267331 155.054665,99.8080026 155.332,99.288 C155.817336,98.3519953 157.169322,97.884 159.388,97.884 C161.814679,97.884 163.253331,98.5253269 163.704,99.808 C163.877334,100.397336 163.964,101.298661 163.964,102.512 L163.964,128.304 Z M207.28,100.588 L221.32,129.604 C221.909336,130.782673 222.204,131.666664 222.204,132.256 C222.204,133.504006 221.198677,134.630662 219.188,135.636 C218.009327,136.225336 217.082003,136.52 216.406,136.52 C215.729997,136.52 215.175335,136.364002 214.742,136.052 C214.308664,135.739998 213.996668,135.410668 213.806,135.064 L213.558594,134.600875 C213.402865,134.302959 213.216668,133.937336 213,133.504 L210.296,127.888 L195.892,127.888 L193.188,133.504 L192.867333,134.133779 C192.670889,134.51126 192.509112,134.803999 192.382,135.012 C192.191332,135.324002 191.879335,135.644665 191.446,135.974 C191.012664,136.303335 190.458003,136.468 189.782,136.468 C189.157997,136.468 188.319851,136.216926 187.26754,135.71477 L187,135.584 C184.989323,134.613328 183.984,133.504006 183.984,132.256 C183.984,131.666664 184.278664,130.782673 184.868,129.604 L198.908,100.536 C199.289335,99.7386627 199.869996,99.0973358 200.65,98.612 C201.430004,98.1266642 202.253329,97.884 203.12,97.884 C204.992009,97.884 206.378662,98.7853243 207.28,100.588 Z M203.068,113.068 L199.636,120.192 L206.552,120.192 L203.068,113.068 Z M255.328,98.612 C257.026675,99.7906726 257.876,100.934661 257.876,102.044 C257.876,102.658759 257.528721,103.499995 256.834152,104.567732 L245.448,121.596 L245.448,131.528 C245.448,132.325337 245.422,132.923331 245.37,133.322 C245.318,133.720669 245.153335,134.179997 244.876,134.7 C244.598665,135.220003 244.13067,135.583999 243.472,135.792 C242.81333,136.000001 241.929339,136.104 240.82,136.104 C239.710661,136.104 238.82667,136.000001 238.168,135.792 C237.50933,135.583999 237.041335,135.211336 236.764,134.674 C236.486665,134.136664 236.322,133.668669 236.27,133.27 C236.218,132.871331 236.192,132.256004 236.192,131.424 L236.192,121.596 L224.96,104.8 C224.162663,103.621327 223.764,102.70267 223.764,102.044 C223.764,100.934661 224.526659,99.8686718 226.052,98.846 C227.577341,97.8233282 228.66933,97.312 229.328,97.312 C229.913484,97.312 230.389398,97.4215627 230.755753,97.640691 L230.888,97.728 C231.477336,98.1093352 232.10133,98.8199948 232.76,99.86 L240.82,112.756 L248.88,99.86 C249.53867,98.8199948 250.110664,98.135335 250.596,97.806 C251.081336,97.476665 251.644663,97.312 252.286,97.312 C252.927337,97.312 253.941326,97.745329 255.328,98.612 Z" id="FUNPLAY" fill="#F9BA38" fill-rule="nonzero"></path>
            <path d="M20.63,159.42 C20.8833346,159.42 21.0699994,159.476666 21.19,159.59 C21.3100006,159.703334 21.37,159.886665 21.37,160.14 L21.37,165.62 C21.37,166.193336 20.8966714,166.589999 19.95,166.81 C19.0033286,167.030001 17.9433392,167.14 16.77,167.14 C14.6099892,167.14 12.996672,166.560006 11.93,165.4 C10.863328,164.239994 10.33,162.446679 10.33,160.02 C10.33,155.246643 12.5366446,152.86 16.95,152.86 C17.5633364,152.86 18.1933301,152.919999 18.84,153.04 C19.4866699,153.160001 20.0199979,153.323332 20.44,153.53 C20.8600021,153.736668 21.07,153.959999 21.07,154.2 C21.07,154.36 21.0066673,154.569999 20.88,154.83 C20.7533327,155.090001 20.6033342,155.319999 20.43,155.52 C20.2566658,155.720001 20.103334,155.82 19.97,155.82 L19.9055104,155.803674 C19.8423814,155.781905 19.7389804,155.738368 19.5953066,155.673061 L19.48,155.62 C19.1933319,155.486666 18.8333355,155.366667 18.4,155.26 C17.9666645,155.153333 17.4700028,155.1 16.91,155.1 C15.5633266,155.1 14.5800031,155.506663 13.96,156.32 C13.3399969,157.133337 13.03,158.346659 13.03,159.96 C13.03,163.25335 14.2899874,164.9 16.81,164.9 C17.4900034,164.9 18.129997,164.840001 18.73,164.72 L18.73,161.66 L16.77,161.66 C16.5833324,161.66 16.4466671,161.593334 16.36,161.46 C16.2733329,161.326666 16.23,161.106668 16.23,160.8 L16.23,160.28 C16.23,159.973332 16.2733329,159.753334 16.36,159.62 C16.4466671,159.486666 16.5833324,159.42 16.77,159.42 L20.63,159.42 Z M26.79,167.14 C25.7766616,167.14 25.003336,166.876669 24.47,166.35 C23.936664,165.823331 23.67,165.106671 23.67,164.2 C23.67,161.746654 25.6899798,160.513333 29.73,160.5 L29.73,159.74 C29.73,158.859996 29.1366726,158.42 27.95,158.42 C27.4566642,158.42 27.0233352,158.476666 26.65,158.59 C26.3699986,158.675 26.1162501,158.76375 25.8887503,158.85625 L25.4593872,159.043062 C25.3083667,159.107687 25.2185716,159.14 25.19,159.14 C25.0166658,159.14 24.8200011,158.953335 24.6,158.58 C24.3799989,158.206665 24.27,157.926668 24.27,157.74 C24.27,157.526666 24.4399983,157.316668 24.78,157.11 C25.1200017,156.903332 25.5833304,156.733334 26.17,156.6 C26.7566696,156.466666 27.3899966,156.4 28.07,156.4 C29.4833404,156.4 30.5333299,156.689997 31.22,157.27 C31.9066701,157.850003 32.25,158.646662 32.25,159.66 L32.25,163.68 L32.2559259,164.248397 C32.2697529,164.869467 32.3077775,165.343332 32.37,165.67 L32.4431252,166.073595 C32.4743752,166.259532 32.49,166.381666 32.49,166.44 C32.49,166.626668 32.2700022,166.77 31.83,166.87 C31.3899978,166.97 30.9966684,167.02 30.65,167.02 C30.4366656,167.02 30.2833338,166.923334 30.19,166.73 C30.0966662,166.536666 30.0266669,166.326668 29.98,166.1 L29.914,165.7712 C29.9033333,165.715733 29.8953334,165.672 29.89,165.64 C29.6099986,166.000002 29.2133359,166.339998 28.7,166.66 C28.1866641,166.980002 27.5500038,167.14 26.79,167.14 Z M27.47,165.12 C27.936669,165.12 28.3633314,164.996668 28.75,164.75 C29.1366686,164.503332 29.463332,164.186669 29.73,163.8 L29.73,162.28 C28.6366612,162.28 27.7800031,162.403332 27.16,162.65 C26.5399969,162.896668 26.23,163.33333 26.23,163.96 C26.23,164.320002 26.3366656,164.603332 26.55,164.81 C26.7633344,165.016668 27.069998,165.12 27.47,165.12 Z M46.27,156.4 C48.27001,156.4 49.27,157.479989 49.27,159.64 L49.27,166.46 C49.27,166.846669 48.9166702,167.04 48.21,167.04 L47.81,167.04 C47.1033298,167.04 46.75,166.846669 46.75,166.46 L46.75,159.98 C46.75,158.993328 46.2700048,158.5 45.31,158.5 C44.8833312,158.5 44.5100016,158.629999 44.19,158.89 C43.8699984,159.150001 43.6166676,159.433332 43.43,159.74 L43.43,166.46 C43.43,166.846669 43.0766702,167.04 42.37,167.04 L41.99,167.04 C41.6166648,167.04 41.3466675,166.993334 41.18,166.9 C41.0133325,166.806666 40.93,166.660001 40.93,166.46 L40.93,159.98 C40.93,158.993328 40.4500048,158.5 39.49,158.5 C39.0366644,158.5 38.643335,158.643332 38.31,158.93 C37.976665,159.216668 37.743334,159.486665 37.61,159.74 L37.61,166.46 C37.61,166.846669 37.2566702,167.04 36.55,167.04 L36.15,167.04 C35.4433298,167.04 35.09,166.846669 35.09,166.46 L35.09,159.9 C35.09,159.006662 35.0500004,158.353335 34.97,157.94 L34.8968748,157.542499 C34.8656248,157.359166 34.85,157.238334 34.85,157.18 C34.85,156.993332 35.0699978,156.85 35.51,156.75 C35.9500022,156.65 36.3433316,156.6 36.69,156.6 C36.9033344,156.6 37.0566662,156.693332 37.15,156.88 C37.2433338,157.066668 37.3133331,157.263332 37.36,157.47 L37.426,157.7736 C37.4366667,157.825867 37.4446666,157.868 37.45,157.9 C37.7966684,157.473331 38.2333307,157.116668 38.76,156.83 C39.2866693,156.543332 39.85,156.4 40.45,156.4 C41.85,156.4 42.749998,156.919995 43.15,157.96 C43.5100018,157.519998 43.9666639,157.150002 44.52,156.85 C45.0733361,156.549999 45.6566636,156.4 46.27,156.4 Z M56.69,167.14 C54.9699914,167.14 53.6900042,166.683338 52.85,165.77 C52.0099958,164.856662 51.59,163.546675 51.59,161.84 C51.59,159.999991 52.0066625,158.633338 52.84,157.74 C53.6733375,156.846662 54.8499924,156.4 56.37,156.4 C57.8100072,156.4 58.8799965,156.866662 59.58,157.8 C60.2800035,158.733338 60.63,159.993325 60.63,161.58 C60.63,161.726667 60.5100012,161.936665 60.27,162.21 C60.0299988,162.483335 59.8500006,162.62 59.73,162.62 L54.21,162.62 C54.276667,163.500004 54.5199979,164.136665 54.94,164.53 C55.3600021,164.923335 55.969996,165.12 56.77,165.12 C57.4900036,165.12 58.2233296,164.933335 58.97,164.56 L59.1566671,164.482222 C59.2633337,164.440741 59.3344443,164.42 59.37,164.42 C59.5433342,164.42 59.7399989,164.596665 59.96,164.95 C60.1800011,165.303335 60.29,165.573332 60.29,165.76 C60.29,166.013335 60.0966686,166.246666 59.71,166.46 C59.3233314,166.673334 58.8466695,166.839999 58.28,166.96 C57.7133305,167.080001 57.1833358,167.14 56.69,167.14 Z M58.13,160.84 C58.13,160.079996 57.9800015,159.486669 57.68,159.06 C57.3799985,158.633331 56.9366696,158.42 56.35,158.42 C55.1099938,158.42 54.3966676,159.226659 54.21,160.84 L58.13,160.84 Z M68.63,167 C68.3766654,167 68.1900006,166.940001 68.07,166.82 C67.9499994,166.699999 67.89,166.513335 67.89,166.26 L67.89,153.74 C67.89,153.473332 67.9499994,153.283334 68.07,153.17 C68.1900006,153.056666 68.3766654,153 68.63,153 L72.83,153 C74.8166766,153 76.3666611,153.586661 77.48,154.76 C78.5933389,155.933339 79.15,157.679988 79.15,160 C79.15,162.320012 78.5933389,164.066661 77.48,165.24 C76.3666611,166.413339 74.8166766,167 72.83,167 L68.63,167 Z M72.77,164.76 C73.9300058,164.76 74.8333301,164.363337 75.48,163.57 C76.1266699,162.776663 76.45,161.586675 76.45,160 C76.45,158.413325 76.1266699,157.223337 75.48,156.43 C74.8333301,155.636663 73.9300058,155.24 72.77,155.24 L70.53,155.24 L70.53,164.76 L72.77,164.76 Z M86.17,167.14 C84.4499914,167.14 83.1700042,166.683338 82.33,165.77 C81.4899958,164.856662 81.07,163.546675 81.07,161.84 C81.07,159.999991 81.4866625,158.633338 82.32,157.74 C83.1533375,156.846662 84.3299924,156.4 85.85,156.4 C87.2900072,156.4 88.3599965,156.866662 89.06,157.8 C89.7600035,158.733338 90.11,159.993325 90.11,161.58 C90.11,161.726667 89.9900012,161.936665 89.75,162.21 C89.5099988,162.483335 89.3300006,162.62 89.21,162.62 L83.69,162.62 C83.756667,163.500004 83.9999979,164.136665 84.42,164.53 C84.8400021,164.923335 85.449996,165.12 86.25,165.12 C86.9700036,165.12 87.7033296,164.933335 88.45,164.56 L88.6366671,164.482222 C88.7433337,164.440741 88.8144443,164.42 88.85,164.42 C89.0233342,164.42 89.2199989,164.596665 89.44,164.95 C89.6600011,165.303335 89.77,165.573332 89.77,165.76 C89.77,166.013335 89.5766686,166.246666 89.19,166.46 C88.8033314,166.673334 88.3266695,166.839999 87.76,166.96 C87.1933305,167.080001 86.6633358,167.14 86.17,167.14 Z M87.61,160.84 C87.61,160.079996 87.4600015,159.486669 87.16,159.06 C86.8599985,158.633331 86.4166696,158.42 85.83,158.42 C84.5899938,158.42 83.8766676,159.226659 83.69,160.84 L87.61,160.84 Z M95.43,167.04 C94.8433304,167.04 94.5033338,166.913335 94.41,166.66 L91.23,157.24 L91.1787999,157.0704 C91.1595999,156.9968 91.15,156.94 91.15,156.9 C91.15,156.633332 91.516663,156.5 92.25,156.5 L92.71,156.5 C93.310003,156.5 93.643333,156.626665 93.71,156.88 L95.2361112,161.668889 C95.3144444,161.935555 95.434027,162.397219 95.5948609,163.053888 L95.81,163.96 L95.89,163.96 C96.0766676,163.026662 96.2633324,162.213337 96.45,161.52 L97.95,156.88 C98.016667,156.626665 98.349997,156.5 98.95,156.5 L99.31,156.5 C100.003337,156.5 100.35,156.633332 100.35,156.9 C100.35,156.98 100.33,157.093333 100.29,157.24 L97.09,166.66 C96.9966662,166.913335 96.6633362,167.04 96.09,167.04 L95.43,167.04 Z M106.65,167.14 C104.929991,167.14 103.650004,166.683338 102.81,165.77 C101.969996,164.856662 101.55,163.546675 101.55,161.84 C101.55,159.999991 101.966662,158.633338 102.8,157.74 C103.633337,156.846662 104.809992,156.4 106.33,156.4 C107.770007,156.4 108.839996,156.866662 109.54,157.8 C110.240003,158.733338 110.59,159.993325 110.59,161.58 C110.59,161.726667 110.470001,161.936665 110.23,162.21 C109.989999,162.483335 109.810001,162.62 109.69,162.62 L104.17,162.62 C104.236667,163.500004 104.479998,164.136665 104.9,164.53 C105.320002,164.923335 105.929996,165.12 106.73,165.12 C107.450004,165.12 108.18333,164.933335 108.93,164.56 L109.116667,164.482222 C109.223334,164.440741 109.294444,164.42 109.33,164.42 C109.503334,164.42 109.699999,164.596665 109.92,164.95 C110.140001,165.303335 110.25,165.573332 110.25,165.76 C110.25,166.013335 110.056669,166.246666 109.67,166.46 C109.283331,166.673334 108.806669,166.839999 108.24,166.96 C107.67333,167.080001 107.143336,167.14 106.65,167.14 Z M108.09,160.84 C108.09,160.079996 107.940001,159.486669 107.64,159.06 C107.339998,158.633331 106.89667,158.42 106.31,158.42 C105.069994,158.42 104.356668,159.226659 104.17,160.84 L108.09,160.84 Z M115.59,167.14 C114.736662,167.14 114.056669,166.896669 113.55,166.41 C113.043331,165.923331 112.79,165.146672 112.79,164.08 L112.79,152.5 C112.79,152.126665 113.14333,151.94 113.85,151.94 L114.23,151.94 C114.93667,151.94 115.29,152.126665 115.29,152.5 L115.29,164.04 C115.29,164.426669 115.363333,164.703332 115.51,164.87 C115.656667,165.036667 115.869999,165.12 116.15,165.12 C116.238889,165.12 116.324815,165.114074 116.407778,165.102222 L116.685,165.05 C116.728333,165.043333 116.763333,165.04 116.79,165.04 C116.950001,165.04 117.083333,165.209998 117.19,165.55 C117.296667,165.890002 117.35,166.139999 117.35,166.3 C117.35,166.860003 116.763339,167.14 115.59,167.14 Z M123.05,167.14 C121.489992,167.14 120.303337,166.680005 119.49,165.76 C118.676663,164.839995 118.27,163.513342 118.27,161.78 C118.27,160.033325 118.676663,158.700005 119.49,157.78 C120.303337,156.859995 121.489992,156.4 123.05,156.4 C124.596674,156.4 125.773329,156.859995 126.58,157.78 C127.386671,158.700005 127.79,160.033325 127.79,161.78 C127.79,163.526675 127.386671,164.856662 126.58,165.77 C125.773329,166.683338 124.596674,167.14 123.05,167.14 Z M123.03,165.12 C123.77667,165.12 124.326665,164.843336 124.68,164.29 C125.033335,163.736664 125.21,162.893339 125.21,161.76 C125.21,160.639994 125.033335,159.803336 124.68,159.25 C124.326665,158.696664 123.77667,158.42 123.03,158.42 C122.28333,158.42 121.730002,158.696664 121.37,159.25 C121.009998,159.803336 120.83,160.639994 120.83,161.76 C120.83,162.893339 121.009998,163.736664 121.37,164.29 C121.730002,164.843336 122.28333,165.12 123.03,165.12 Z M131.29,171.14 C130.916665,171.14 130.646667,171.093334 130.48,171 C130.313332,170.906666 130.23,170.760001 130.23,170.56 L130.23,159.9 C130.23,159.105922 130.198395,158.501482 130.135185,158.086667 L130.036875,157.542499 C130.005625,157.359166 129.99,157.238334 129.99,157.18 C129.99,156.993332 130.209998,156.85 130.65,156.75 C131.090002,156.65 131.476665,156.6 131.81,156.6 C132.036668,156.6 132.196666,156.693332 132.29,156.88 C132.383334,157.066668 132.453333,157.263332 132.5,157.47 L132.566,157.7736 C132.576667,157.825867 132.584667,157.868 132.59,157.9 C132.923335,157.433331 133.333331,157.066668 133.82,156.8 C134.306669,156.533332 134.84333,156.4 135.43,156.4 C136.190004,156.4 136.856664,156.616665 137.43,157.05 C138.003336,157.483336 138.446665,158.106663 138.76,158.92 C139.073335,159.733337 139.23,160.686661 139.23,161.78 C139.23,163.446675 138.860004,164.756662 138.12,165.71 C137.379996,166.663338 136.36334,167.14 135.07,167.14 C134.189996,167.14 133.410003,166.886669 132.73,166.38 L132.73,170.56 C132.73,170.946669 132.37667,171.14 131.67,171.14 L131.29,171.14 Z M134.51,165.1 C135.936674,165.1 136.65,164.006678 136.65,161.82 C136.65,160.726661 136.490002,159.89667 136.17,159.33 C135.849998,158.76333 135.37667,158.48 134.75,158.48 C134.363331,158.48 134.000002,158.593332 133.66,158.82 C133.319998,159.046668 133.010001,159.353331 132.73,159.74 L132.73,164.54 C133.263336,164.913335 133.856663,165.1 134.51,165.1 Z M152.75,156.4 C154.75001,156.4 155.75,157.479989 155.75,159.64 L155.75,166.46 C155.75,166.846669 155.39667,167.04 154.69,167.04 L154.29,167.04 C153.58333,167.04 153.23,166.846669 153.23,166.46 L153.23,159.98 C153.23,158.993328 152.750005,158.5 151.79,158.5 C151.363331,158.5 150.990002,158.629999 150.67,158.89 C150.349998,159.150001 150.096668,159.433332 149.91,159.74 L149.91,166.46 C149.91,166.846669 149.55667,167.04 148.85,167.04 L148.47,167.04 C148.096665,167.04 147.826667,166.993334 147.66,166.9 C147.493333,166.806666 147.41,166.660001 147.41,166.46 L147.41,159.98 C147.41,158.993328 146.930005,158.5 145.97,158.5 C145.516664,158.5 145.123335,158.643332 144.79,158.93 C144.456665,159.216668 144.223334,159.486665 144.09,159.74 L144.09,166.46 C144.09,166.846669 143.73667,167.04 143.03,167.04 L142.63,167.04 C141.92333,167.04 141.57,166.846669 141.57,166.46 L141.57,159.9 L141.564074,159.339998 C141.550247,158.728146 141.512223,158.261483 141.45,157.94 L141.376875,157.542499 C141.345625,157.359166 141.33,157.238334 141.33,157.18 C141.33,156.993332 141.549998,156.85 141.99,156.75 C142.430002,156.65 142.823332,156.6 143.17,156.6 C143.383334,156.6 143.536666,156.693332 143.63,156.88 C143.723334,157.066668 143.793333,157.263332 143.84,157.47 L143.906,157.7736 C143.916667,157.825867 143.924667,157.868 143.93,157.9 C144.276668,157.473331 144.713331,157.116668 145.24,156.83 C145.766669,156.543332 146.33,156.4 146.93,156.4 C148.33,156.4 149.229998,156.919995 149.63,157.96 C149.990002,157.519998 150.446664,157.150002 151,156.85 C151.553336,156.549999 152.136664,156.4 152.75,156.4 Z M163.17,167.14 C161.449991,167.14 160.170004,166.683338 159.33,165.77 C158.489996,164.856662 158.07,163.546675 158.07,161.84 C158.07,159.999991 158.486662,158.633338 159.32,157.74 C160.153337,156.846662 161.329992,156.4 162.85,156.4 C164.290007,156.4 165.359996,156.866662 166.06,157.8 C166.760003,158.733338 167.11,159.993325 167.11,161.58 C167.11,161.726667 166.990001,161.936665 166.75,162.21 C166.509999,162.483335 166.330001,162.62 166.21,162.62 L160.69,162.62 C160.756667,163.500004 160.999998,164.136665 161.42,164.53 C161.840002,164.923335 162.449996,165.12 163.25,165.12 C163.970004,165.12 164.70333,164.933335 165.45,164.56 L165.636667,164.482222 C165.743334,164.440741 165.814444,164.42 165.85,164.42 C166.023334,164.42 166.219999,164.596665 166.44,164.95 C166.660001,165.303335 166.77,165.573332 166.77,165.76 C166.77,166.013335 166.576669,166.246666 166.19,166.46 C165.803331,166.673334 165.326669,166.839999 164.76,166.96 C164.193331,167.080001 163.663336,167.14 163.17,167.14 Z M164.61,160.84 C164.61,160.079996 164.460001,159.486669 164.16,159.06 C163.859999,158.633331 163.41667,158.42 162.83,158.42 C161.589994,158.42 160.876668,159.226659 160.69,160.84 L164.61,160.84 Z M170.37,167.04 C169.66333,167.04 169.31,166.846669 169.31,166.46 L169.31,159.9 L169.304074,159.339998 C169.290247,158.728146 169.252223,158.261483 169.19,157.94 L169.116875,157.542499 C169.085625,157.359166 169.07,157.238334 169.07,157.18 C169.07,156.993332 169.289998,156.85 169.73,156.75 C170.170002,156.65 170.563332,156.6 170.91,156.6 C171.136668,156.6 171.296666,156.696666 171.39,156.89 C171.483334,157.083334 171.553333,157.283332 171.6,157.49 L171.69,157.9 L171.69,157.9 C172.036668,157.459998 172.479997,157.100001 173.02,156.82 C173.560003,156.539999 174.12333,156.4 174.71,156.4 C176.736677,156.4 177.75,157.479989 177.75,159.64 L177.75,166.46 C177.75,166.660001 177.666668,166.806666 177.5,166.9 C177.333332,166.993334 177.063335,167.04 176.69,167.04 L176.31,167.04 C175.60333,167.04 175.25,166.846669 175.25,166.46 L175.25,159.98 C175.25,158.993328 174.750005,158.5 173.75,158.5 C173.363331,158.5 173.000002,158.619999 172.66,158.86 C172.319998,159.100001 172.043334,159.393332 171.83,159.74 L171.83,166.46 C171.83,166.846669 171.47667,167.04 170.77,167.04 L170.37,167.04 Z M183.61,167.14 C182.756662,167.14 182.073336,166.893336 181.56,166.4 C181.046664,165.906664 180.79,165.133339 180.79,164.08 L180.79,158.56 L180.25,158.56 C180.063332,158.56 179.926667,158.493334 179.84,158.36 C179.753333,158.226666 179.71,158.006668 179.71,157.7 L179.71,157.4 C179.71,157.093332 179.753333,156.873334 179.84,156.74 C179.926667,156.606666 180.063332,156.54 180.25,156.54 L180.79,156.54 L181.05,154.58 C181.116667,154.193331 181.423331,154 181.97,154 L182.45,154 C183.023336,154 183.31,154.193331 183.31,154.58 L183.31,156.54 L184.53,156.54 C184.716668,156.54 184.853333,156.606666 184.94,156.74 C185.026667,156.873334 185.07,157.093332 185.07,157.4 L185.07,157.7 C185.07,158.006668 185.026667,158.226666 184.94,158.36 C184.853333,158.493334 184.716668,158.56 184.53,158.56 L183.31,158.56 L183.31,164.04 C183.31,164.440002 183.379999,164.719999 183.52,164.88 C183.660001,165.040001 183.869999,165.12 184.15,165.12 C184.238889,165.12 184.324815,165.114074 184.407778,165.102222 L184.53,165.08 C184.650001,165.053333 184.743333,165.04 184.81,165.04 C184.970001,165.04 185.103333,165.209998 185.21,165.55 C185.316667,165.890002 185.37,166.139999 185.37,166.3 C185.37,166.860003 184.783339,167.14 183.61,167.14 Z M195.75,167.14 C194.856662,167.14 194.060004,167.046668 193.36,166.86 C192.659997,166.673332 192.116669,166.440001 191.73,166.16 C191.396665,165.906665 191.23,165.680001 191.23,165.48 C191.23,165.226665 191.363332,164.910002 191.63,164.53 C191.896668,164.149998 192.116666,163.96 192.29,163.96 C192.37,163.96 192.536665,164.033333 192.79,164.18 C193.203335,164.393334 193.609998,164.566666 194.01,164.7 C194.410002,164.833334 194.876664,164.9 195.41,164.9 C196.010003,164.9 196.513331,164.756668 196.92,164.47 C197.326669,164.183332 197.53,163.753336 197.53,163.18 C197.53,162.819998 197.426668,162.516668 197.22,162.27 C197.013332,162.023332 196.756668,161.816667 196.45,161.65 C196.230951,161.530952 195.950681,161.396599 195.609185,161.246939 L194.47,160.76 C193.856664,160.493332 193.343335,160.210002 192.93,159.91 C192.516665,159.609998 192.176668,159.206669 191.91,158.7 C191.643332,158.193331 191.51,157.553337 191.51,156.78 C191.51,155.939996 191.719998,155.223336 192.14,154.63 C192.560002,154.036664 193.12333,153.593335 193.83,153.3 C194.53667,153.006665 195.309996,152.86 196.15,152.86 C196.750003,152.86 197.329997,152.926666 197.89,153.06 C198.450003,153.193334 198.883332,153.373332 199.19,153.6 C199.470001,153.800001 199.61,153.999999 199.61,154.2 C199.61,154.440001 199.496668,154.749998 199.27,155.13 C199.043332,155.510002 198.843334,155.7 198.67,155.7 C198.603333,155.7 198.496667,155.666667 198.35,155.6 L198.01,155.44 L198.01,155.44 C197.476664,155.213332 196.910003,155.1 196.31,155.1 C195.589996,155.1 195.060002,155.243332 194.72,155.53 C194.379998,155.816668 194.21,156.179998 194.21,156.62 C194.21,157.006669 194.309999,157.323332 194.51,157.57 C194.710001,157.816668 194.956665,158.013333 195.25,158.16 L195.535714,158.29551 C195.802381,158.416599 196.140474,158.558094 196.55,158.72 C197.310004,159.026668 197.936664,159.326665 198.43,159.62 C198.923336,159.913335 199.346665,160.329997 199.7,160.87 C200.053335,161.410003 200.23,162.099996 200.23,162.94 C200.23,164.340007 199.803338,165.389996 198.95,166.09 C198.096662,166.790004 197.030006,167.14 195.75,167.14 Z M205.25,167.14 C204.396662,167.14 203.713336,166.893336 203.2,166.4 C202.686664,165.906664 202.43,165.133339 202.43,164.08 L202.43,158.56 L201.89,158.56 C201.703332,158.56 201.566667,158.493334 201.48,158.36 C201.393333,158.226666 201.35,158.006668 201.35,157.7 L201.35,157.4 C201.35,157.093332 201.393333,156.873334 201.48,156.74 C201.566667,156.606666 201.703332,156.54 201.89,156.54 L202.43,156.54 L202.69,154.58 C202.756667,154.193331 203.063331,154 203.61,154 L204.09,154 C204.663336,154 204.95,154.193331 204.95,154.58 L204.95,156.54 L206.17,156.54 C206.356668,156.54 206.493333,156.606666 206.58,156.74 C206.666667,156.873334 206.71,157.093332 206.71,157.4 L206.71,157.7 C206.71,158.006668 206.666667,158.226666 206.58,158.36 C206.493333,158.493334 206.356668,158.56 206.17,158.56 L204.95,158.56 L204.95,164.04 C204.95,164.440002 205.019999,164.719999 205.16,164.88 C205.300001,165.040001 205.509999,165.12 205.79,165.12 C205.878889,165.12 205.964815,165.114074 206.047778,165.102222 L206.17,165.08 C206.290001,165.053333 206.383333,165.04 206.45,165.04 C206.610001,165.04 206.743333,165.209998 206.85,165.55 C206.956667,165.890002 207.01,166.139999 207.01,166.3 C207.01,166.860003 206.423339,167.14 205.25,167.14 Z M211.87,167.14 C209.843323,167.14 208.83,166.060011 208.83,163.9 L208.83,157.08 C208.83,156.879999 208.913333,156.733334 209.08,156.64 C209.246668,156.546666 209.516665,156.5 209.89,156.5 L210.27,156.5 C210.97667,156.5 211.33,156.693331 211.33,157.08 L211.33,163.56 C211.33,164.546672 211.83,165.04 212.83,165.04 C213.216669,165.04 213.579998,164.920001 213.92,164.68 C214.260002,164.439999 214.536666,164.146668 214.75,163.8 L214.75,157.08 C214.75,156.693331 215.10333,156.5 215.81,156.5 L216.21,156.5 C216.91667,156.5 217.27,156.693331 217.27,157.08 L217.27,163.68 C217.27,164.48593 217.301605,165.099588 217.364815,165.520987 L217.48,166.177501 C217.5,166.305834 217.51,166.393333 217.51,166.44 C217.51,166.626668 217.290002,166.77 216.85,166.87 C216.409998,166.97 216.016668,167.02 215.67,167.02 C215.456666,167.02 215.303334,166.923334 215.21,166.73 C215.116666,166.536666 215.046667,166.326668 215,166.1 L214.934,165.7712 C214.923333,165.715733 214.915333,165.672 214.91,165.64 C214.549998,166.080002 214.100003,166.439999 213.56,166.72 C213.019997,167 212.45667,167.14 211.87,167.14 Z M223.37,167.14 C222.62333,167.14 221.963336,166.923336 221.39,166.49 C220.816664,166.056665 220.370002,165.436671 220.05,164.63 C219.729998,163.823329 219.57,162.866672 219.57,161.76 C219.57,160.093325 219.94333,158.783338 220.69,157.83 C221.43667,156.876662 222.45666,156.4 223.75,156.4 C224.643338,156.4 225.416663,156.653331 226.07,157.16 L226.07,152.5 C226.07,152.126665 226.42333,151.94 227.13,151.94 L227.53,151.94 C228.23667,151.94 228.59,152.126665 228.59,152.5 L228.59,163.68 C228.59,164.48593 228.621605,165.099588 228.684815,165.520987 L228.8,166.177501 C228.82,166.305834 228.83,166.393333 228.83,166.44 C228.83,166.626668 228.610002,166.77 228.17,166.87 C227.729998,166.97 227.336668,167.02 226.99,167.02 C226.776666,167.02 226.623334,166.923334 226.53,166.73 C226.436666,166.536666 226.366667,166.326668 226.32,166.1 L226.254,165.7712 C226.243333,165.715733 226.235333,165.672 226.23,165.64 C225.909998,166.106669 225.500003,166.473332 225,166.74 C224.499998,167.006668 223.95667,167.14 223.37,167.14 Z M224.07,165.06 C224.803337,165.06 225.469997,164.640004 226.07,163.8 L226.07,159 C225.536664,158.626665 224.950003,158.44 224.31,158.44 C222.869993,158.44 222.15,159.533322 222.15,161.72 C222.15,162.813339 222.309998,163.64333 222.63,164.21 C222.950002,164.776669 223.429997,165.06 224.07,165.06 Z M232.61,155.04 C231.769996,155.04 231.35,154.820002 231.35,154.38 L231.35,153.08 C231.35,152.639998 231.783329,152.42 232.65,152.42 C233.490004,152.42 233.91,152.639998 233.91,153.08 L233.91,154.38 C233.91,154.606668 233.806668,154.773333 233.6,154.88 C233.393332,154.986667 233.063336,155.04 232.61,155.04 Z M240.99,156.4 C242.536674,156.4 243.713329,156.859995 244.52,157.78 C245.326671,158.700005 245.73,160.033325 245.73,161.78 C245.73,163.526675 245.326671,164.856662 244.52,165.77 C243.713329,166.683338 242.536674,167.14 240.99,167.14 C239.429992,167.14 238.243337,166.680005 237.43,165.76 C236.616663,164.839995 236.21,163.513342 236.21,161.78 C236.21,160.033325 236.616663,158.700005 237.43,157.78 C238.243337,156.859995 239.429992,156.4 240.99,156.4 Z M232.83,156.5 C233.53667,156.5 233.89,156.693331 233.89,157.08 L233.89,166.46 C233.89,166.846669 233.53667,167.04 232.83,167.04 L232.43,167.04 C231.72333,167.04 231.37,166.846669 231.37,166.46 L231.37,157.08 C231.37,156.693331 231.72333,156.5 232.43,156.5 L232.83,156.5 Z M240.97,158.42 C240.22333,158.42 239.670002,158.696664 239.31,159.25 C238.949998,159.803336 238.77,160.639994 238.77,161.76 C238.77,162.893339 238.949998,163.736664 239.31,164.29 C239.670002,164.843336 240.22333,165.12 240.97,165.12 C241.71667,165.12 242.266665,164.843336 242.62,164.29 C242.973335,163.736664 243.15,162.893339 243.15,161.76 C243.15,160.639994 242.973335,159.803336 242.62,159.25 C242.266665,158.696664 241.71667,158.42 240.97,158.42 Z" id="GameDevelopmentStudio" fill="#FFFFFF" fill-rule="nonzero"></path>
        </g>
    </g>
</svg>